<svg width="188" height="26" viewBox="0 0 188 26" fill="none" xmlns="http://www.w3.org/2000/svg">
<g clip-path="url(#clip0_1603_324)">
<path d="M115.458 6.10132C114.316 6.10132 113.282 6.54157 112.5 7.25838C111.721 6.54439 110.684 6.10132 109.543 6.10132C107.132 6.10132 105.172 8.05421 105.172 10.4586V19.7321H108.005V10.4586C108.005 9.61201 108.696 8.92342 109.543 8.92342C110.39 8.92342 111.084 9.61201 111.084 10.4586V19.7321H113.917V10.4586C113.917 9.61201 114.608 8.92342 115.458 8.92342C116.307 8.92342 116.996 9.61201 116.996 10.4586V19.7179H119.828V10.4586C119.828 8.05703 117.868 6.10132 115.458 6.10132Z" fill="#0063FD"/>
<path d="M132.276 6.10132C131.134 6.10132 130.1 6.54157 129.319 7.25838C128.54 6.54439 127.503 6.10132 126.361 6.10132C123.95 6.10132 121.99 8.05421 121.99 10.4586V19.7321H124.823V10.4586C124.823 9.61201 125.514 8.92342 126.361 8.92342C127.208 8.92342 127.902 9.61201 127.902 10.4586V19.7321H130.735V10.4586C130.735 9.61201 131.426 8.92342 132.276 8.92342C133.126 8.92342 133.814 9.61201 133.814 10.4586V19.7179H136.647V10.4586C136.647 8.05703 134.687 6.10132 132.276 6.10132Z" fill="#0063FD"/>
<path d="M96.6632 6.0675C92.8419 6.0675 89.7344 9.16335 89.7344 12.9704C89.7344 16.7774 92.8419 19.8732 96.6632 19.8732C100.485 19.8732 103.592 16.7774 103.592 12.9704C103.592 9.16335 100.485 6.0675 96.6632 6.0675ZM96.6632 17.0539C94.4027 17.0539 92.5671 15.2224 92.5671 12.9732C92.5671 10.724 94.4055 8.89243 96.6632 8.89243C98.9209 8.89243 100.759 10.724 100.759 12.9732C100.759 15.2224 98.9209 17.0539 96.6632 17.0539Z" fill="#0063FD"/>
<path d="M81.6639 8.8896C83.2191 8.8896 84.5674 9.80679 85.2246 11.136H88.2415C87.4455 8.21794 84.7969 6.0675 81.6639 6.0675C77.8992 6.0675 74.8398 9.16335 74.8398 12.9704C74.8398 16.7774 77.902 19.8732 81.6639 19.8732C84.7997 19.8732 87.4455 17.7228 88.2415 14.8047H85.2246C84.5674 16.1368 83.2191 17.0511 81.6639 17.0511C79.4629 17.0511 77.6726 15.2196 77.6726 12.9704C77.6726 10.7211 79.4629 8.8896 81.6639 8.8896Z" fill="#0063FD"/>
<path d="M166.308 8.8896C167.864 8.8896 169.212 9.80679 169.869 11.136H172.886C172.09 8.21794 169.441 6.0675 166.308 6.0675C162.544 6.0675 159.484 9.16335 159.484 12.9704C159.484 16.7774 162.547 19.8732 166.308 19.8732C169.444 19.8732 172.09 17.7228 172.886 14.8047H169.869C169.212 16.1368 167.864 17.0511 166.308 17.0511C164.107 17.0511 162.317 15.2196 162.317 12.9704C162.317 10.7211 164.107 8.8896 166.308 8.8896Z" fill="#0063FD"/>
<path d="M145.055 6.0675C141.29 6.0675 138.23 9.16335 138.23 12.9704C138.23 16.7774 141.293 19.8732 145.055 19.8732C147.873 19.8732 150.298 18.1348 151.338 15.6626H148.077C147.338 16.5121 146.258 17.0511 145.052 17.0511C143.264 17.0511 141.749 15.8687 141.219 14.2403H151.76C151.836 13.8283 151.879 13.405 151.879 12.9704C151.879 9.16335 148.816 6.0675 145.055 6.0675ZM141.222 11.7004C141.752 10.0692 143.267 8.8896 145.055 8.8896C146.842 8.8896 148.357 10.0721 148.887 11.7004H141.222Z" fill="#0063FD"/>
<path d="M188 12.9704C188 9.16335 184.937 6.0675 181.176 6.0675C177.414 6.0675 174.352 9.16335 174.352 12.9704C174.352 16.7774 177.414 19.8732 181.176 19.8732C183.994 19.8732 186.419 18.1348 187.459 15.6626H184.198C183.459 16.5121 182.38 17.0511 181.173 17.0511C179.385 17.0511 177.87 15.8687 177.34 14.2403H187.881C187.957 13.8283 188 13.405 188 12.9704ZM177.343 11.7004C177.873 10.0692 179.388 8.8896 181.176 8.8896C182.963 8.8896 184.479 10.0721 185.008 11.7004H177.343Z" fill="#0063FD"/>
<path d="M153.502 10.2978V19.7321H156.335V10.1934C156.335 9.39471 156.983 8.74845 157.785 8.74845H158.895V6.21985H157.595C155.335 6.21985 153.502 8.04575 153.502 10.2978Z" fill="#0063FD"/>
<path d="M11.0278 7.408C9.88057 6.56702 8.46137 6.0675 6.9317 6.0675C3.10751 6.0675 0 9.16617 0 12.9704C0 16.7745 3.10751 19.8732 6.92887 19.8732C8.46137 19.8732 9.87774 19.3737 11.025 18.5327V19.3173C11.025 21.4451 9.28853 23.1751 7.15265 23.1751V25.9972C10.8494 25.9972 13.8577 23.0001 13.8577 19.3173V6.21708H11.025V7.408H11.0278ZM6.9317 17.0539C4.67118 17.0539 2.83557 15.2224 2.83557 12.9732C2.83557 10.724 4.67401 8.89243 6.9317 8.89243C9.18939 8.89243 11.0278 10.724 11.0278 12.9732C11.0278 15.2224 9.18939 17.0539 6.9317 17.0539Z" fill="#0042CF"/>
<path d="M26.4703 7.408C25.3231 6.56702 23.9039 6.0675 22.3742 6.0675C18.5528 6.0675 15.4453 9.16335 15.4453 12.9704C15.4453 16.7774 18.5528 19.8732 22.3742 19.8732C23.9067 19.8732 25.3231 19.3737 26.4703 18.5327V19.7293H29.303V6.21708H26.4703V7.408ZM22.3742 17.0539C20.1137 17.0539 18.278 15.2224 18.278 12.9732C18.278 10.724 20.1165 8.89243 22.3742 8.89243C24.6319 8.89243 26.4703 10.724 26.4703 12.9732C26.4703 15.2224 24.6319 17.0539 22.3742 17.0539Z" fill="#0042CF"/>
<path d="M38.3839 6.06751C36.8514 6.06751 35.4351 6.56703 34.2878 7.40801V0H31.4551V19.7321H34.2878V18.5355C35.4351 19.3765 36.8543 19.876 38.3839 19.876C42.2053 19.876 45.3128 16.7802 45.3128 12.9732C45.3128 9.16618 42.2053 6.07034 38.3839 6.07034V6.06751ZM38.3839 17.0539C36.1234 17.0539 34.2878 15.2224 34.2878 12.9732C34.2878 10.724 36.1263 8.89244 38.3839 8.89244C40.6416 8.89244 42.4801 10.724 42.4801 12.9732C42.4801 15.2224 40.6416 17.0539 38.3839 17.0539Z" fill="#0042CF"/>
<path d="M49.739 6.21704H46.9062V19.7293H49.739V6.21704Z" fill="#0042CF"/>
<path d="M62.3629 7.408C61.2156 6.56702 59.7964 6.0675 58.2668 6.0675C54.4454 6.0675 51.3379 9.16335 51.3379 12.9704C51.3379 16.7774 54.4454 19.8732 58.2668 19.8732C59.7993 19.8732 61.2156 19.3737 62.3629 18.5327V19.7293H65.1956V6.21708H62.3629V7.408ZM58.2668 17.0539C56.0062 17.0539 54.1706 15.2224 54.1706 12.9732C54.1706 10.724 56.0091 8.89243 58.2668 8.89243C60.5244 8.89243 62.3629 10.724 62.3629 12.9732C62.3629 15.2224 60.5244 17.0539 58.2668 17.0539Z" fill="#0042CF"/>
<path d="M69.7858 16.4218C68.6753 16.4218 67.7773 17.3192 67.7773 18.4226C67.7773 19.5261 68.6782 20.4235 69.7858 20.4235C70.8934 20.4235 71.7942 19.5289 71.7942 18.4226C71.7942 17.3164 70.8934 16.4218 69.7858 16.4218Z" fill="#0042CF"/>
</g>
<defs>
<clipPath id="clip0_1603_324">
<rect width="188" height="26" fill="white"/>
</clipPath>
</defs>
</svg>
