<svg xmlns="http://www.w3.org/2000/svg" width="25" height="25" viewBox="0 0 25 25"><defs><style>.a{fill:#ccc;}.b{fill:none;}</style></defs><g transform="translate(-3175 -1272)"><g transform="translate(3176.667 1273.667)"><path class="a" d="M2341.172,357.595H2325.7a3.1,3.1,0,0,0-3.095,3.1v15.476a3.1,3.1,0,0,0,3.095,3.1h15.476a3.1,3.1,0,0,0,3.1-3.1V360.69A3.1,3.1,0,0,0,2341.172,357.595Zm-12.3,3.7h9.118v9.119h-9.118Zm4.51,15.3-1.853-2.216h3.747Zm2.566-3h-5.077l-2.017-2.412h9.156Z" transform="translate(-2322.601 -357.595)"/><path class="a" d="M2339.551,369.93l-1.277-1.87h-1.3v3.57h1.3v-1.8l1.277,1.8h1.3v-3.57h-1.3Z" transform="translate(-2328.076 -361.582)"/></g><rect class="b" width="25" height="25" transform="translate(3175 1272)"/></g></svg>