<svg xmlns="http://www.w3.org/2000/svg" width="25" height="25" viewBox="0 0 25 25"><defs><style>.a{fill:#ccc;}.b{fill:none;}</style></defs><g transform="translate(-1105 -397)"><g transform="translate(1105 399.857)"><path class="a" d="M2257.079,364.69a3.363,3.363,0,0,0-2.21-2.5c-1.95-.591-9.767-.591-9.767-.591s-7.818,0-9.767.591a3.366,3.366,0,0,0-2.21,2.5,44.68,44.68,0,0,0,0,13.627,3.366,3.366,0,0,0,2.21,2.5c1.949.591,9.767.591,9.767.591s7.818,0,9.767-.591a3.363,3.363,0,0,0,2.21-2.5A44.7,44.7,0,0,0,2257.079,364.69ZM2242.1,375.685v-8.364l7.351,4.182Z" transform="translate(-2232.603 -361.599)"/></g><rect class="b" width="25" height="25" transform="translate(1105 397)"/></g></svg>