<svg xmlns="http://www.w3.org/2000/svg" width="25" height="25" viewBox="0 0 25 25"><defs><style>.a{fill:#ccc;}.b{fill:none;}</style></defs><g transform="translate(-1150 -397)"><g transform="translate(1150 400.571)"><path class="a" d="M2284.6,371.245a.971.971,0,0,0-.714.3,1.053,1.053,0,0,0,0,1.467.968.968,0,0,0,.714.3,1.036,1.036,0,0,0,0-2.071Z" transform="translate(-2279.312 -363.638)"/><path class="a" d="M2296.712,371.233a.964.964,0,0,0-.714.3,1.052,1.052,0,0,0,0,1.467.966.966,0,0,0,.714.3,1.036,1.036,0,0,0,0-2.071Z" transform="translate(-2282.772 -363.634)"/><path class="a" d="M2304.789,371.245a.97.97,0,0,0-.714.3,1.053,1.053,0,0,0,0,1.467.97.97,0,0,0,.714.3,1.036,1.036,0,0,0,0-2.071Z" transform="translate(-2285.08 -363.638)"/><path class="a" d="M2299.875,360.595h-19.549a2.735,2.735,0,0,0-2.725,2.726v11.056a2.734,2.734,0,0,0,2.725,2.726H2288s1.482,4.047,2.022,4.047,2.143-4.047,2.143-4.047h7.706a2.734,2.734,0,0,0,2.726-2.726V363.321A2.734,2.734,0,0,0,2299.875,360.595ZM2284.867,370.8a2.393,2.393,0,0,1-2.956.2h-.018v.311h-1.468v-6.4h1.468v2.447h.018a2.415,2.415,0,0,1,1.547-.474,1.939,1.939,0,0,1,1.417.7,2.562,2.562,0,0,1,.572,1.643A2.1,2.1,0,0,1,2284.867,370.8Zm3.15.563h-1.5V367.4a.953.953,0,0,0-.722-1.034v-1.585a2.523,2.523,0,0,1,2.219,2.67Zm5.873-1.214a2.318,2.318,0,0,1-.55.768,2.5,2.5,0,0,1-.82.511,2.71,2.71,0,0,1-.979.179,2.644,2.644,0,0,1-.963-.179,2.578,2.578,0,0,1-.82-.511,2.428,2.428,0,0,1-.562-.776,2.237,2.237,0,0,1,0-1.806,2.443,2.443,0,0,1,.562-.776,2.571,2.571,0,0,1,.82-.511,2.629,2.629,0,0,1,.963-.178,2.71,2.71,0,0,1,.979.178,2.5,2.5,0,0,1,.82.511,2.275,2.275,0,0,1,.55,2.591Zm5.885.636a2.917,2.917,0,0,1-.714,2.286,2.548,2.548,0,0,1-2.161.5v-1.161a1.243,1.243,0,0,0,1.41-1.05c0-.019,0-.038.006-.056v-.3h-.018a1.661,1.661,0,0,1-1.473.63,1.892,1.892,0,0,1-1.479-.637,2.478,2.478,0,0,1-.531-1.666,2.758,2.758,0,0,1,.592-1.857,2.024,2.024,0,0,1,1.6-.673,1.729,1.729,0,0,1,1.293.463h.018v-.355h1.458Z" transform="translate(-2277.601 -360.595)"/></g><rect class="b" width="25" height="25" transform="translate(1150 397)"/></g></svg>