<svg xmlns="http://www.w3.org/2000/svg" width="25" height="25" viewBox="0 0 25 25"><defs><style>.a{fill:#ccc;}.b{fill:none;}</style></defs><g transform="translate(-3047 -1272)"><g transform="translate(3047.833 1272.833)"><g transform="translate(0 0.003)"><path class="a" d="M2208.141,370.365l0,0Z" transform="translate(-2194.447 -361.855)"/><path class="a" d="M2209.15,369.347c-.025.013-.047.03-.071.044C2209.1,369.377,2209.124,369.36,2209.15,369.347Z" transform="translate(-2194.76 -361.516)"/><path class="a" d="M2208.751,369.617c-.014.012-.027.026-.041.039C2208.724,369.643,2208.737,369.629,2208.751,369.617Z" transform="translate(-2194.637 -361.606)"/><path class="a" d="M2208.4,369.982l.015-.02Z" transform="translate(-2194.533 -361.721)"/><path class="a" d="M2209.6,369.162c-.029.009-.056.022-.085.033C2209.545,369.184,2209.572,369.17,2209.6,369.162Z" transform="translate(-2194.906 -361.454)"/><path class="a" d="M2210,369.084c.031,0,.061-.013.093-.016h-.01C2210.059,369.071,2210.033,369.08,2210,369.084Z" transform="translate(-2195.069 -361.423)"/><path class="a" d="M2202.365,368.97c0-2.923,1.74-4.538,4.4-4.539h0c-2.665,0-4.407,1.615-4.407,4.539v2.571h0Z" transform="translate(-2192.521 -359.877)"/><path class="a" d="M2210.679,369.08h0Z" transform="translate(-2195.291 -361.427)"/><rect class="a" width="0.004" height="3.373" transform="translate(6.877 11.664)"/><path class="a" d="M2197.441,380.79v-8.153h-2.963v-3.373h2.963v-2.571c0-2.924,1.742-4.539,4.407-4.539h0a17.949,17.949,0,0,1,2.612.228v2.871h-1.483a1.722,1.722,0,0,0-.352-.008c-.032,0-.062.012-.093.016a1.787,1.787,0,0,0-.24.047c-.029.008-.056.022-.085.033a1.676,1.676,0,0,0-.221.091c-.025.013-.047.03-.071.044a1.715,1.715,0,0,0-.205.136c-.014.012-.027.026-.041.039a1.617,1.617,0,0,0-.194.191c-.005.006-.01.013-.015.02a1.689,1.689,0,0,0-.17.249l0,0a1.684,1.684,0,0,0-.2.962v2.189h3.234l-.518,3.373h-2.716v8.153a11.666,11.666,0,1,0-13.49-11.56v.085A11.666,11.666,0,0,0,2197.441,380.79Z" transform="translate(-2187.601 -357.6)"/><path class="a" d="M2211.585,367.53h0v-2.871a17.942,17.942,0,0,0-2.612-.228h0a18.022,18.022,0,0,1,2.611.228Z" transform="translate(-2194.725 -359.877)"/><path class="a" d="M2207.831,380.155v8.153h0v-8.153Z" transform="translate(-2194.344 -365.118)"/><path class="a" d="M2211.91,378.469l.518-3.373h0l-.518,3.373Z" transform="translate(-2195.704 -363.432)"/></g><rect class="b" width="23.333" height="23.333" transform="translate(0 0)"/></g><rect class="b" width="25" height="25" transform="translate(3047 1272)"/></g></svg>