<svg xmlns="http://www.w3.org/2000/svg" width="22" height="24" viewBox="0 0 22 24">
  <g id="marketplace_icon" transform="translate(-1450 -300)">
    <path id="패스_106188" data-name="패스 106188" d="M0,0H22V24H0Z" transform="translate(1450 300)" fill="none"/>
    <g id="그룹_101804" data-name="그룹 101804" transform="translate(1449.694 225.408)">
      <path id="패스_106187" data-name="패스 106187" d="M358.366,780.026c-.034-.038-4.885-2.822-4.885-2.822a.742.742,0,0,0-.746.01l-4.263,2.591-4.482-2.552a.743.743,0,0,0-.747.011l-4.806,2.9a.738.738,0,0,0-.369.638v5.567a.735.735,0,0,0,.368.637l4.655,2.688v5.071a.737.737,0,0,0,.368.637l4.842,2.8a.731.731,0,0,0,.349.088.445.445,0,0,0,.219-.052l5.011-3.276a.733.733,0,0,0,.33-.613v-5.083l4.138-2.749a.732.732,0,0,0,.33-.613v-5.279A.739.739,0,0,0,358.366,780.026Zm-18.815.775h0l4.08-2.48,3.265,1.859.746.424-4.041,2.545-1.933-1.115Zm13.555,8.924v4.429l-4.087,2.716v-4.682h0Zm-5.178-8.3h0V786.3l-3.933,2.39v-4.9h0Zm-.321,9.535-.939-.542-2.094-1.219h0l3.879-2.358h0l3.988,2.3-3.818,2.4Zm4.907-8.193-1.421-.82-2.051-1.194,4.08-2.48,4.01,2.284-4.041,2.545Zm.972,5.658h0v-4.682l4.087-2.463h0v4.43h0Zm4.659-2.211h0c.011-.007.015-.02.026-.028C358.16,786.193,358.156,786.206,358.145,786.213Zm.164-.306a.365.365,0,0,1-.044.174.365.365,0,0,0,.044-.174v-5.279h0Z" transform="translate(-337.066 -701.109)" fill="#333" stroke="#333" stroke-width="0.3"/>
    </g>
  </g>
</svg>
