<svg xmlns="http://www.w3.org/2000/svg" width="22" height="20" viewBox="0 0 22 20">
  <g id="그룹_149874" data-name="그룹 149874" transform="translate(-497 -1931)">
    <rect id="사각형_50443" data-name="사각형 50443" width="22" height="20" transform="translate(497 1931)" fill="transparent"/>
    <path id="패스_143050" data-name="패스 143050" d="M10-1.5A4.483,4.483,0,0,1,5.534-5.66L2.256-8.193A10.414,10.414,0,0,0,1.109-6.456,1.2,1.2,0,0,0,1-6a1.2,1.2,0,0,0,.109.456A10.023,10.023,0,0,0,10,0a9.707,9.707,0,0,0,2.434-.327L10.812-1.582A5.424,5.424,0,0,1,10-1.5ZM19.807.316l-3.455-2.67a12.341,12.341,0,0,0,2.539-3.19A1.2,1.2,0,0,0,19-6a1.2,1.2,0,0,0-.109-.456A10.023,10.023,0,0,0,10-12a11.4,11.4,0,0,0-4.6,1.178L1.421-13.895A.583.583,0,0,0,1.114-14a.565.565,0,0,0-.395.193l-.613.79A.583.583,0,0,0,0-12.71a.565.565,0,0,0,.193.395L18.579,1.895A.583.583,0,0,0,18.886,2a.565.565,0,0,0,.395-.193l.614-.79A.583.583,0,0,0,20,.71.565.565,0,0,0,19.807.316ZM14.066-4.122l-1.228-.949A3.546,3.546,0,0,0,13-6c0-.011,0-.028,0-.039A2.962,2.962,0,0,0,10.039-9a3.552,3.552,0,0,0-.83.119,2.249,2.249,0,0,0-.649.3L7.152-9.465A5.163,5.163,0,0,1,10-10.5h0A4.5,4.5,0,0,1,14.5-6v0a4.393,4.393,0,0,1-.434,1.878Z" transform="translate(498 1947)" fill="#8e9091"/>
  </g>
</svg>
