<svg xmlns="http://www.w3.org/2000/svg" xmlns:xlink="http://www.w3.org/1999/xlink" width="112" height="44" viewBox="0 0 112 44"><defs><style>.a{fill:#fff;}.b{fill:url(#a);}.c{fill:url(#b);}.d{fill:url(#c);}.e{fill:url(#d);}.f{fill:url(#e);}.g{fill:url(#f);}.h{fill:url(#g);}.i{fill:url(#h);}.j{fill:url(#i);}.k{fill:#00378a;}</style><linearGradient id="a" x1="0.853" y1="0.854" x2="0.146" y2="0.147" gradientUnits="objectBoundingBox"><stop offset="0" stop-color="#0080c6"/><stop offset="1" stop-color="#00378a"/></linearGradient><linearGradient id="b" x1="0" y1="0.5" x2="1" y2="0.5" xlink:href="#a"/><linearGradient id="c" x1="0.854" y1="0.147" x2="0.147" y2="0.854" xlink:href="#a"/><linearGradient id="d" x1="0.5" y1="0" x2="0.5" y2="1" xlink:href="#a"/><linearGradient id="e" x1="0.146" y1="0.853" x2="0.853" y2="0.146" xlink:href="#a"/><linearGradient id="f" x1="2.415" y1="0.744" x2="-1.415" y2="0.256" xlink:href="#a"/><linearGradient id="g" x1="0.853" y1="0.854" x2="0.146" y2="0.147" xlink:href="#a"/><linearGradient id="h" x1="1.698" y1="0.889" x2="-0.696" y2="0.111" xlink:href="#a"/><linearGradient id="i" x1="-643.866" y1="-13.532" x2="-646.259" y2="-14.309" xlink:href="#a"/></defs><path class="a" d="M19.184,32.956l2.131,8.067a11.423,11.423,0,0,0,1.027,1.149l-2.83-10.707A10.716,10.716,0,0,0,19.184,32.956Zm.405-1.743,4.019,12.018a10.907,10.907,0,0,0,.937.605L19.981,30.187A9.859,9.859,0,0,0,19.589,31.213Zm4.635,4.169L20.9,28.525c-.153.227-.3.459-.433.7L28.2,45.172c.273.051.551.091.829.121L25.7,38.423A5.882,5.882,0,0,1,24.224,35.383Zm2.961,4.228,3.253,5.749c.262,0,.521-.017.778-.036l-2.96-5.231A6.148,6.148,0,0,1,27.185,39.61Zm3.082.817a6.213,6.213,0,0,1-.778-.051l3.1,4.751c.242-.048.48-.107.714-.171L30.35,40.425C30.322,40.427,30.294,40.427,30.267,40.427Zm4.3-1.727,3.483,3.6c.166-.157.331-.317.488-.486l-3.5-3.625A5.881,5.881,0,0,1,34.571,38.7Zm6.889-4.494-15.7-9.681c-.253.11-.5.225-.742.35L31.07,28.6a6.147,6.147,0,0,1,4.337,2.676l6.048,3.727c.007-.172.012-.345.012-.518C41.467,34.393,41.462,34.3,41.46,34.206ZM24.319,33.135l-2.854-5.041,2.987,4.572a5.683,5.683,0,0,1,.321-.776L22.055,27.73l2.884,3.856a6.113,6.113,0,0,1,.406-.611L22.622,27.33l2.906,3.414A6.4,6.4,0,0,1,26,30.238L23.159,26.9l3.053,3.151a6.269,6.269,0,0,1,.55-.419l-3.091-3.2L27,29.473a6.213,6.213,0,0,1,.642-.347l-3.5-3.189,3.8,3.057a5.629,5.629,0,0,1,.782-.253L24.6,25.415l4.581,3.233a6.114,6.114,0,0,1,1.051-.1l-5.209-3.676a11.155,11.155,0,0,0-4.111,3.643l3.251,5.746A5.7,5.7,0,0,1,24.319,33.135Zm-5.248,1.353a10.631,10.631,0,0,0,1.085,4.68l-1.058-5.4C19.083,34.009,19.071,34.246,19.071,34.488Zm.958-4.4,5.878,14.424c.288.119.583.223.882.318L20.447,29.263C20.294,29.53,20.156,29.8,20.029,30.084Zm18.532-2.909-9.184-3.53a11.254,11.254,0,0,0-1.4.19l11.461,4.406A11.361,11.361,0,0,0,38.561,27.175Zm2.594,4.765L26.646,24.193c-.288.1-.574.2-.851.318l15.54,8.3C41.288,32.517,41.227,32.226,41.155,31.94ZM40.272,29.6l-12.5-5.715c-.352.077-.695.171-1.03.279l13.969,6.385A10.108,10.108,0,0,0,40.272,29.6Zm-10-5.992c-.1,0-.2,0-.306.007L37.1,25.867A11.351,11.351,0,0,0,30.267,23.607ZM36.259,35.67l4.184,3.364q.151-.323.284-.656l-4.357-3.5A6.042,6.042,0,0,1,36.259,35.67Zm-.631,1.673,3.771,3.44c.137-.186.268-.379.394-.573L35.942,36.7A6.679,6.679,0,0,1,35.628,37.343Zm.7-3.647,4.817,3.4c.059-.239.111-.485.155-.728L36.1,32.69A5.767,5.767,0,0,1,36.326,33.7Zm-3.159,6.018,3.276,3.847c.195-.125.387-.257.574-.391l-3.249-3.817A6.3,6.3,0,0,1,33.167,39.714Zm-1.7.6,3.144,4.205c.219-.089.435-.187.647-.289l-3.069-4.1A6.476,6.476,0,0,1,31.466,40.311Z" transform="translate(-19.071 -12.505)"/><path class="a" d="M36.383,34.657l5.084,11.116V44.089L36.383,32.976Zm0-4.485,5.084,13.174V41.4L36.383,28.23Zm4.239-6.565.845,3.7v-3.7ZM30.271,57.145a11.306,11.306,0,0,0,2.844-.368l-2.844-.319Zm6.112-12.178,3.966,4.992-3.966-4.41v.388c0,.209-.011.417-.031.621l3.477,3.869L36.3,46.946a6.273,6.273,0,0,1-.186.8l3.225,3.181-3.32-2.9a6.217,6.217,0,0,1-.293.673l3.157,2.756L35.6,48.925a6.055,6.055,0,0,1-.379.591l3.225,2.489-3.372-2.291a6.17,6.17,0,0,1-.466.528l3.447,2.343-3.635-2.159a6.359,6.359,0,0,1-.577.47L37.7,53.187l-4.109-2.115a5.9,5.9,0,0,1-.735.409l4.521,2.325-4.908-2.16a6.374,6.374,0,0,1-1.051.3l5.679,2.5-6.49-2.4c-.111.008-.225.012-.336.012v.609l6.488,2.4a11.237,11.237,0,0,0,4.126-5.557l-4.5-5.667Zm0-21.36v.416l5.084,15.991V37.7l-4.481-14.1Zm2.179,0,2.9,11.512V32.258l-2.183-8.651ZM30.271,54.979l4.722,1.12c.322-.152.636-.316.942-.495l-5.664-1.345Zm0-1.134,5.717,1.725c.261-.152.517-.32.765-.5l-6.482-1.959Zm0,2.236,3.283.57a10.751,10.751,0,0,0,1.288-.484l-4.571-.8ZM36.383,38.1l4.983,9.349a11.239,11.239,0,0,0,.1-1.3l-5.079-9.533Zm0,2.74L41.147,48.6c.083-.332.148-.67.2-1.014L36.383,39.5Zm0,2.242,4.5,6.432c.094-.282.179-.568.252-.861l-4.754-6.789Z" transform="translate(-19.071 -13.145)"/><path class="a" d="M52.892,45.255l8.3-2.071a11.345,11.345,0,0,0,1.184-1l-11.02,2.748A11.9,11.9,0,0,0,52.892,45.255Zm-1.8-.392,12.373-3.905c.221-.293.43-.6.622-.912L50.042,44.481C50.384,44.623,50.737,44.752,51.1,44.863Zm4.291-4.505-7.058,3.227c.235.148.472.291.719.422l16.42-7.5c.051-.268.1-.538.126-.81l-7.075,3.237A6.182,6.182,0,0,1,55.387,40.357Zm4.354-2.873,5.918-3.163c0-.253-.016-.505-.038-.753L60.237,36.44A6.092,6.092,0,0,1,59.741,37.484Zm.839-3a5.753,5.753,0,0,1-.052.758l4.893-3.018c-.053-.235-.112-.465-.178-.693l-4.665,2.872C60.579,34.435,60.58,34.461,60.58,34.488ZM58.8,30.307l3.71-3.381c-.163-.164-.329-.323-.5-.478l-3.729,3.4A6.147,6.147,0,0,1,58.8,30.307Zm-4.627-6.693-9.962,15.25c.11.246.227.487.356.72l3.838-5.873a5.937,5.937,0,0,1,2.753-4.216L55,23.621c-.175-.008-.354-.014-.532-.014C54.369,23.607,54.273,23.611,54.177,23.614Zm-1.1,16.656-5.189,2.77,4.706-2.9a6.841,6.841,0,0,1-.8-.311L47.51,42.466l3.969-2.8a6.729,6.729,0,0,1-.63-.4L47.1,41.916l3.516-2.825a5.553,5.553,0,0,1-.52-.465l-3.442,2.767L49.9,38.429a6.079,6.079,0,0,1-.437-.536l-3.289,3,3.128-3.24a6.109,6.109,0,0,1-.357-.622l-3.283,3.4,3.148-3.7a5.618,5.618,0,0,1-.261-.758L45.128,40l3.328-4.449a5.848,5.848,0,0,1-.1-1.023l-3.784,5.059a11.013,11.013,0,0,0,3.751,4l5.913-3.158A6.593,6.593,0,0,1,53.075,40.27Zm1.392,5.1a11.438,11.438,0,0,0,4.817-1.057l-5.555,1.031C53.974,45.353,54.219,45.365,54.467,45.365Zm-4.532-.933,14.849-5.708c.121-.281.227-.568.326-.859L49.089,44.03C49.363,44.176,49.648,44.31,49.935,44.432Zm-2.994-18-3.636,8.923a10.371,10.371,0,0,0,.2,1.36L48.04,25.58A11.534,11.534,0,0,0,46.941,26.43Zm4.9-2.52L43.87,38c.1.284.207.561.329.83l8.544-15.1C52.44,23.782,52.141,23.841,51.844,23.91Zm-2.41.858L43.549,36.914c.081.342.178.675.29,1l6.573-13.571C50.078,24.471,49.751,24.612,49.434,24.768Zm-6.167,9.72c0,.1,0,.2.008.3l2.317-6.932A10.633,10.633,0,0,0,43.267,34.488Zm12.418-5.822,3.46-4.064c-.22-.1-.444-.191-.672-.276l-3.6,4.234A6.155,6.155,0,0,1,55.685,28.666Zm1.719.613,3.54-3.662c-.191-.133-.386-.26-.587-.382l-3.618,3.74A6.6,6.6,0,0,1,57.4,29.279ZM53.651,28.6l3.5-4.675c-.247-.06-.5-.112-.752-.152L52.62,28.828A6.068,6.068,0,0,1,53.651,28.6Zm6.2,3.072,3.961-3.183c-.13-.189-.264-.376-.4-.557l-3.929,3.156A5.951,5.951,0,0,1,59.847,31.672Zm.613,1.651,4.33-3.054c-.091-.214-.193-.423-.3-.628l-4.22,2.98A5.727,5.727,0,0,1,60.46,33.323Z" transform="translate(-19.439 -12.505)"/><path class="a" d="M60.571,29.913l5.088,6.218V35.039L60.571,28.82Zm0,2.415,5.088,5.5V36.812l-5.088-5.5Zm0-5.23,5.088,7.058V32.972l-5.088-7.056Zm0,18.267H61.8l-1.23-.445Zm2.19-21.7,2.9,5.284V27.5l-2.1-3.839Zm-2.19,10.778,5.088,4.873v-.957l-5.088-4.87Zm0-10.778v.088l5.088,8.056v-1.3l-4.32-6.843Zm5.062,0h-.771l.8,1.688V23.72ZM60.571,36.317l5.088,4.316v-.9l-5.088-4.312Zm0,8.4,1.815.652H64.4l-3.831-1.376Zm0-2.424,5.088,2.545v-.766l-5.088-2.544Zm0,1.244,4.283,1.832h.805v-.4L60.571,42.79Zm0-2.564L65.659,43.9v-.79l-5.088-2.932Zm0-2.961,5.088,3.813v-.86l-5.088-3.813Zm0,1.54L65.659,42.9v-.82l-5.088-3.357Z" transform="translate(-19.601 -12.505)"/><path class="a" d="M81.009,23.715l-8.3,2.072a11.153,11.153,0,0,0-1.187,1l11.021-2.747A11.241,11.241,0,0,0,81.009,23.715Zm1.8.4L70.433,28.016a9.463,9.463,0,0,0-.624.909L83.857,24.49A10.8,10.8,0,0,0,82.806,24.11Zm-4.293,4.5,7.056-3.227c-.232-.149-.473-.291-.717-.422L68.433,32.471c-.053.266-.093.532-.126.807l7.072-3.236A6.2,6.2,0,0,1,78.513,28.613Zm-4.355,2.876-5.916,3.162c0,.251.016.5.037.751l5.386-2.873A5.719,5.719,0,0,1,74.158,31.489Zm-.839,3a5.683,5.683,0,0,1,.053-.758l-4.893,3.014c.053.235.114.465.182.7l4.66-2.876C73.319,34.537,73.319,34.511,73.319,34.485ZM75.1,38.661l-3.709,3.387c.163.162.328.321.5.472l3.729-3.4A5.757,5.757,0,0,1,75.1,38.661Zm4.629,6.694,9.963-15.249c-.112-.244-.231-.485-.36-.718l-3.838,5.873a5.916,5.916,0,0,1-2.752,4.212L78.9,45.351c.178.008.354.014.536.014C79.528,45.365,79.627,45.359,79.724,45.355Zm1.1-16.653,5.188-2.769-4.705,2.9a6.153,6.153,0,0,1,.8.313l4.284-2.641-3.971,2.8a5.785,5.785,0,0,1,.631.4L86.8,27.056,83.286,29.88a5.8,5.8,0,0,1,.521.462l3.438-2.765L84,30.542c.155.169.3.35.437.533l3.289-3L84.6,31.31a6.366,6.366,0,0,1,.357.623l3.281-3.4-3.148,3.694a6.084,6.084,0,0,1,.264.762l3.423-4.021-3.328,4.449a5.838,5.838,0,0,1,.1,1.023l3.782-5.059a11.068,11.068,0,0,0-3.75-4l-5.915,3.159A6.472,6.472,0,0,1,80.827,28.7Zm-1.392-5.1a11.457,11.457,0,0,0-4.819,1.054l5.553-1.028C79.926,23.617,79.681,23.607,79.435,23.607Zm4.529.93L69.118,30.246c-.123.28-.23.567-.328.857l16.022-6.161C84.537,24.794,84.253,24.661,83.964,24.537Zm3,18.005L90.6,33.62a10.219,10.219,0,0,0-.2-1.364L85.861,43.39A11.676,11.676,0,0,0,86.96,42.542Zm-4.906,2.519,7.977-14.1c-.1-.283-.206-.558-.33-.829l-8.546,15.1C81.46,45.189,81.759,45.128,82.054,45.061Zm2.411-.86,5.886-12.148c-.082-.339-.178-.674-.29-1L83.486,44.625C83.82,44.5,84.147,44.357,84.465,44.2Zm6.17-9.716c0-.1-.005-.2-.008-.3l-2.32,6.933A10.63,10.63,0,0,0,90.635,34.485ZM78.216,40.3l-3.46,4.063c.22.1.444.19.672.276l3.6-4.234A6.069,6.069,0,0,1,78.216,40.3ZM76.5,39.689l-3.541,3.665c.191.134.389.262.588.382L77.161,40A6.425,6.425,0,0,1,76.5,39.689Zm3.754.679-3.5,4.682c.247.055.494.1.75.149l3.778-5.053A6.188,6.188,0,0,1,80.249,40.368Zm-6.2-3.069-3.96,3.183c.13.191.263.376.406.558l3.928-3.159A5.274,5.274,0,0,1,74.053,37.3Zm-.614-1.654L69.11,38.7c.092.212.192.424.3.629L73.63,36.35A6.614,6.614,0,0,1,73.439,35.645Z" transform="translate(-19.818 -12.505)"/><path class="a" d="M68.242,39.112l2.239,6.893h.733L68.242,36.85Zm0-5.036,4.72,11.929h.367v-.98L68.242,32.178Zm5.087-21.571H68.242v6.152l5.087,4.208v-.906l-5.079-4.2,5.079,3.689v-.865l-4.664-3.387,4.664,2.96v-.828l-4.3-2.726,4.3,2.362v-.8l-3.951-2.172,3.951,1.86v-.775l-3.656-1.719L73.329,16.8v-.751l-3.4-1.346,3.4,1.1v-.735l-3.183-1.033,3.183.815v-.721l-3.014-.773,3.014.574v-.711l-2.881-.55,2.881.364Zm-5.087,33.5h.935l-.935-2.61Zm0-15.575,5.087,10.81V39.6L68.242,28.789Zm0-8.322,5.087,6.146v-1.1l-5.087-6.149Zm0-2.441,5.087,4.776v-.959l-5.087-4.777Zm0,1.135,5.087,5.419V25.2l-5.087-5.416Zm0,4.633,5.087,8.015v-1.3l-5.087-8.015Zm0-1.811,5.087,7V29.436l-5.087-7Zm0,4.022L73.329,36.9v-1.45l-5.087-9.252Z" transform="translate(-19.699 -12.505)"/><path class="a" d="M99.948,32.961l2.131,8.066a11.127,11.127,0,0,0,1.027,1.149l-2.83-10.707A10.587,10.587,0,0,0,99.948,32.961Zm.406-1.743,4.02,12.018a11.04,11.04,0,0,0,.936.6l-4.567-13.647C100.6,30.526,100.468,30.867,100.354,31.218Zm4.635,4.167-3.32-6.857c-.152.228-.3.462-.434.7l7.725,15.949c.273.052.551.092.832.12l-3.328-6.869A5.889,5.889,0,0,1,104.989,35.386Zm2.961,4.229,3.25,5.751c.264-.006.524-.017.779-.038L109.02,40.1A6.1,6.1,0,0,1,107.95,39.614Zm3.082.819a7.085,7.085,0,0,1-.779-.051l3.105,4.748c.243-.048.481-.106.717-.17l-2.963-4.529Zm4.3-1.728,3.482,3.6c.17-.158.332-.318.491-.487l-3.5-3.623A6.174,6.174,0,0,1,115.335,38.7Zm6.891-4.494-15.7-9.679c-.252.107-.5.222-.742.349l6.047,3.727a6.13,6.13,0,0,1,4.336,2.674l6.049,3.727c.008-.172.013-.343.013-.517C122.231,34.4,122.227,34.3,122.226,34.211Zm-17.143-1.072L102.231,28.1l2.985,4.572a5.126,5.126,0,0,1,.324-.776l-2.719-4.16,2.885,3.858a6.042,6.042,0,0,1,.4-.615l-2.722-3.643,2.906,3.413a6.358,6.358,0,0,1,.476-.505l-2.845-3.34,3.051,3.153a6.741,6.741,0,0,1,.548-.421l-3.091-3.2,3.336,3.04a6.06,6.06,0,0,1,.64-.347l-3.5-3.187,3.8,3.054a6.15,6.15,0,0,1,.783-.25l-4.137-3.329,4.58,3.233a6.328,6.328,0,0,1,1.053-.1l-5.209-3.673a11.117,11.117,0,0,0-4.113,3.642l3.25,5.745A5.759,5.759,0,0,1,105.083,33.139Zm-5.248,1.354a10.621,10.621,0,0,0,1.086,4.68l-1.057-5.4C99.847,34.012,99.835,34.25,99.835,34.493Zm.957-4.4,5.879,14.425c.287.117.584.22.883.318L101.21,29.267Q100.985,29.669,100.792,30.089Zm18.535-2.908-9.185-3.532a11.5,11.5,0,0,0-1.4.192l11.459,4.4A11.442,11.442,0,0,0,119.327,27.181Zm2.594,4.765L107.409,24.2c-.287.1-.57.2-.851.32l15.541,8.3C122.052,32.523,121.991,32.23,121.921,31.946Zm-.885-2.342L108.53,23.888c-.345.079-.691.172-1.027.28l13.969,6.385A9.759,9.759,0,0,0,121.036,29.6Zm-10-5.993c-.1,0-.207.006-.308.009l7.138,2.252A11.355,11.355,0,0,0,111.032,23.611Zm5.992,12.062,4.182,3.365c.1-.215.2-.432.285-.656l-4.357-3.5A6.469,6.469,0,0,1,117.024,35.673Zm-.632,1.673,3.773,3.441c.135-.187.268-.379.393-.573L116.706,36.7A6.24,6.24,0,0,1,116.392,37.346Zm.7-3.646,4.814,3.4c.061-.238.112-.483.156-.728l-5.2-3.673A5.716,5.716,0,0,1,117.091,33.7Zm-3.158,6.018,3.275,3.847c.193-.126.385-.257.574-.391l-3.252-3.815A6.557,6.557,0,0,1,113.933,39.718Zm-1.7.6,3.147,4.207c.219-.089.435-.189.646-.292l-3.07-4.1A6.182,6.182,0,0,1,112.229,40.315Z" transform="translate(-20.454 -12.505)"/><path class="a" d="M122.231,45.365v-.03l-5.144-18.972v2.908l4.365,16.094Zm0-21.961h-.668l.668.777Zm0,15.242-4.99-14.61,4.99,12.026v-1.98L117.95,23.762l4.281,8.7V30.743l-3.593-7.3,3.593,6.262v-1.52L119.489,23.4h-2.4v2.532L122.231,41Zm-5.13,6.719h.771l-.785-5.736v5.622Zm5.13-20.915L121.44,23.4H120.5l1.736,2.3Zm0,1.687L120.425,23.4h-.906l2.712,4.1Zm-2.205,19.229-2.939-14.477v3.824l2.164,10.654Z" transform="translate(-20.454 -12.505)"/><path class="a" d="M92.686,23.4v.03L97.831,42.4V39.5L93.466,23.4Zm0,21.961h.67l-.67-.775Zm0-15.242,4.991,14.61L92.686,32.708v1.979L96.97,45.008l-4.284-8.7v1.715l3.6,7.306-3.6-6.262v1.52l2.743,4.777h2.4V42.834l-5.145-15.06ZM97.815,23.4h-.949l.965,5.911v-5.8ZM92.686,44.319l.791,1.046h.948l-1.739-2.3Zm0-1.687L94.5,45.365h.9l-2.713-4.1ZM94.89,23.4l2.941,14.478V34.058L95.667,23.4Z" transform="translate(-20.012 -12.505)"/><path class="a" d="M129.31,46.005a3,3,0,0,0,2.22-.924,3.059,3.059,0,0,0,.924-2.239,2.985,2.985,0,0,0-.924-2.218,3.04,3.04,0,0,0-2.24-.927,3.1,3.1,0,0,0-1.2.232l2.492.793-2.8-.637a3.389,3.389,0,0,0-.7.539l-.055.061,3.434.742-3.646-.5a3.249,3.249,0,0,0-.413.677l3.983.54-4.09-.254a2.984,2.984,0,0,0-.129.714l4.172.256-4.178.045a3.445,3.445,0,0,0,.09.721l4.1-.047-4.01.339a2.824,2.824,0,0,0,.352.695l3.709-.32-3.52.572c.064.075.131.149.2.219a3.142,3.142,0,0,0,.5.413l2.91-.492-2.613.669A3.123,3.123,0,0,0,129.31,46.005Z" transform="translate(-20.454 -12.959)"/><path class="b" d="M19.184,32.956l2.131,8.067a11.423,11.423,0,0,0,1.027,1.149l-2.83-10.707A10.716,10.716,0,0,0,19.184,32.956Zm.405-1.743,4.019,12.018a10.907,10.907,0,0,0,.937.605L19.981,30.187A9.859,9.859,0,0,0,19.589,31.213Zm4.635,4.169L20.9,28.525c-.153.227-.3.459-.433.7L28.2,45.172c.273.051.551.091.829.121L25.7,38.423A5.882,5.882,0,0,1,24.224,35.383Zm2.961,4.228,3.253,5.749c.262,0,.521-.017.778-.036l-2.96-5.231A6.148,6.148,0,0,1,27.185,39.61Zm3.082.817a6.213,6.213,0,0,1-.778-.051l3.1,4.751c.242-.048.48-.107.714-.171L30.35,40.425C30.322,40.427,30.294,40.427,30.267,40.427Zm4.3-1.727,3.483,3.6c.166-.157.331-.317.488-.486l-3.5-3.625A5.881,5.881,0,0,1,34.571,38.7Zm6.889-4.494-15.7-9.681c-.253.11-.5.225-.742.35L31.07,28.6a6.147,6.147,0,0,1,4.337,2.676l6.048,3.727c.007-.172.012-.345.012-.518C41.467,34.393,41.462,34.3,41.46,34.206ZM24.319,33.135l-2.854-5.041,2.987,4.572a5.683,5.683,0,0,1,.321-.776L22.055,27.73l2.884,3.856a6.113,6.113,0,0,1,.406-.611L22.622,27.33l2.906,3.414A6.4,6.4,0,0,1,26,30.238L23.159,26.9l3.053,3.151a6.269,6.269,0,0,1,.55-.419l-3.091-3.2L27,29.473a6.213,6.213,0,0,1,.642-.347l-3.5-3.189,3.8,3.057a5.629,5.629,0,0,1,.782-.253L24.6,25.415l4.581,3.233a6.114,6.114,0,0,1,1.051-.1l-5.209-3.676a11.155,11.155,0,0,0-4.111,3.643l3.251,5.746A5.7,5.7,0,0,1,24.319,33.135Zm-5.248,1.353a10.631,10.631,0,0,0,1.085,4.68l-1.058-5.4C19.083,34.009,19.071,34.246,19.071,34.488Zm.958-4.4,5.878,14.424c.288.119.583.223.882.318L20.447,29.263C20.294,29.53,20.156,29.8,20.029,30.084Zm18.532-2.909-9.184-3.53a11.254,11.254,0,0,0-1.4.19l11.461,4.406A11.361,11.361,0,0,0,38.561,27.175Zm2.594,4.765L26.646,24.193c-.288.1-.574.2-.851.318l15.54,8.3C41.288,32.517,41.227,32.226,41.155,31.94ZM40.272,29.6l-12.5-5.715c-.352.077-.695.171-1.03.279l13.969,6.385A10.108,10.108,0,0,0,40.272,29.6Zm-10-5.992c-.1,0-.2,0-.306.007L37.1,25.867A11.351,11.351,0,0,0,30.267,23.607ZM36.259,35.67l4.184,3.364q.151-.323.284-.656l-4.357-3.5A6.042,6.042,0,0,1,36.259,35.67Zm-.631,1.673,3.771,3.44c.137-.186.268-.379.394-.573L35.942,36.7A6.679,6.679,0,0,1,35.628,37.343Zm.7-3.647,4.817,3.4c.059-.239.111-.485.155-.728L36.1,32.69A5.767,5.767,0,0,1,36.326,33.7Zm-3.159,6.018,3.276,3.847c.195-.125.387-.257.574-.391l-3.249-3.817A6.3,6.3,0,0,1,33.167,39.714Zm-1.7.6,3.144,4.205c.219-.089.435-.187.647-.289l-3.069-4.1A6.476,6.476,0,0,1,31.466,40.311Z" transform="translate(-19.071 -12.505)"/><path class="c" d="M36.383,34.657l5.084,11.116V44.089L36.383,32.976Zm0-4.485,5.084,13.174V41.4L36.383,28.23Zm4.239-6.565.845,3.7v-3.7ZM30.271,57.145a11.306,11.306,0,0,0,2.844-.368l-2.844-.319Zm6.112-12.178,3.966,4.992-3.966-4.41v.388c0,.209-.011.417-.031.621l3.477,3.869L36.3,46.946a6.273,6.273,0,0,1-.186.8l3.225,3.181-3.32-2.9a6.217,6.217,0,0,1-.293.673l3.157,2.756L35.6,48.925a6.055,6.055,0,0,1-.379.591l3.225,2.489-3.372-2.291a6.17,6.17,0,0,1-.466.528l3.447,2.343-3.635-2.159a6.359,6.359,0,0,1-.577.47L37.7,53.187l-4.109-2.115a5.9,5.9,0,0,1-.735.409l4.521,2.325-4.908-2.16a6.374,6.374,0,0,1-1.051.3l5.679,2.5-6.49-2.4c-.111.008-.225.012-.336.012v.609l6.488,2.4a11.237,11.237,0,0,0,4.126-5.557l-4.5-5.667Zm0-21.36v.416l5.084,15.991V37.7l-4.481-14.1Zm2.179,0,2.9,11.512V32.258l-2.183-8.651ZM30.271,54.979l4.722,1.12c.322-.152.636-.316.942-.495l-5.664-1.345Zm0-1.134,5.717,1.725c.261-.152.517-.32.765-.5l-6.482-1.959Zm0,2.236,3.283.57a10.751,10.751,0,0,0,1.288-.484l-4.571-.8ZM36.383,38.1l4.983,9.349a11.239,11.239,0,0,0,.1-1.3l-5.079-9.533Zm0,2.74L41.147,48.6c.083-.332.148-.67.2-1.014L36.383,39.5Zm0,2.242,4.5,6.432c.094-.282.179-.568.252-.861l-4.754-6.789Z" transform="translate(-19.071 -13.145)"/><path class="d" d="M52.892,45.255l8.3-2.071a11.345,11.345,0,0,0,1.184-1l-11.02,2.748A11.9,11.9,0,0,0,52.892,45.255Zm-1.8-.392,12.373-3.905c.221-.293.43-.6.622-.912L50.042,44.481C50.384,44.623,50.737,44.752,51.1,44.863Zm4.291-4.505-7.058,3.227c.235.148.472.291.719.422l16.42-7.5c.051-.268.1-.538.126-.81l-7.075,3.237A6.182,6.182,0,0,1,55.387,40.357Zm4.354-2.873,5.918-3.163c0-.253-.016-.505-.038-.753L60.237,36.44A6.092,6.092,0,0,1,59.741,37.484Zm.839-3a5.753,5.753,0,0,1-.052.758l4.893-3.018c-.053-.235-.112-.465-.178-.693l-4.665,2.872C60.579,34.435,60.58,34.461,60.58,34.488ZM58.8,30.307l3.71-3.381c-.163-.164-.329-.323-.5-.478l-3.729,3.4A6.147,6.147,0,0,1,58.8,30.307Zm-4.627-6.693-9.962,15.25c.11.246.227.487.356.72l3.838-5.873a5.937,5.937,0,0,1,2.753-4.216L55,23.621c-.175-.008-.354-.014-.532-.014C54.369,23.607,54.273,23.611,54.177,23.614Zm-1.1,16.656-5.189,2.77,4.706-2.9a6.841,6.841,0,0,1-.8-.311L47.51,42.466l3.969-2.8a6.729,6.729,0,0,1-.63-.4L47.1,41.916l3.516-2.825a5.553,5.553,0,0,1-.52-.465l-3.442,2.767L49.9,38.429a6.079,6.079,0,0,1-.437-.536l-3.289,3,3.128-3.24a6.109,6.109,0,0,1-.357-.622l-3.283,3.4,3.148-3.7a5.618,5.618,0,0,1-.261-.758L45.128,40l3.328-4.449a5.848,5.848,0,0,1-.1-1.023l-3.784,5.059a11.013,11.013,0,0,0,3.751,4l5.913-3.158A6.593,6.593,0,0,1,53.075,40.27Zm1.392,5.1a11.438,11.438,0,0,0,4.817-1.057l-5.555,1.031C53.974,45.353,54.219,45.365,54.467,45.365Zm-4.532-.933,14.849-5.708c.121-.281.227-.568.326-.859L49.089,44.03C49.363,44.176,49.648,44.31,49.935,44.432Zm-2.994-18-3.636,8.923a10.371,10.371,0,0,0,.2,1.36L48.04,25.58A11.534,11.534,0,0,0,46.941,26.43Zm4.9-2.52L43.87,38c.1.284.207.561.329.83l8.544-15.1C52.44,23.782,52.141,23.841,51.844,23.91Zm-2.41.858L43.549,36.914c.081.342.178.675.29,1l6.573-13.571C50.078,24.471,49.751,24.612,49.434,24.768Zm-6.167,9.72c0,.1,0,.2.008.3l2.317-6.932A10.633,10.633,0,0,0,43.267,34.488Zm12.418-5.822,3.46-4.064c-.22-.1-.444-.191-.672-.276l-3.6,4.234A6.155,6.155,0,0,1,55.685,28.666Zm1.719.613,3.54-3.662c-.191-.133-.386-.26-.587-.382l-3.618,3.74A6.6,6.6,0,0,1,57.4,29.279ZM53.651,28.6l3.5-4.675c-.247-.06-.5-.112-.752-.152L52.62,28.828A6.068,6.068,0,0,1,53.651,28.6Zm6.2,3.072,3.961-3.183c-.13-.189-.264-.376-.4-.557l-3.929,3.156A5.951,5.951,0,0,1,59.847,31.672Zm.613,1.651,4.33-3.054c-.091-.214-.193-.423-.3-.628l-4.22,2.98A5.727,5.727,0,0,1,60.46,33.323Z" transform="translate(-19.439 -12.505)"/><path class="e" d="M60.571,29.913l5.088,6.218V35.039L60.571,28.82Zm0,2.415,5.088,5.5V36.812l-5.088-5.5Zm0-5.23,5.088,7.058V32.972l-5.088-7.056Zm0,18.267H61.8l-1.23-.445Zm2.19-21.7,2.9,5.284V27.5l-2.1-3.839Zm-2.19,10.778,5.088,4.873v-.957l-5.088-4.87Zm0-10.778v.088l5.088,8.056v-1.3l-4.32-6.843Zm5.062,0h-.771l.8,1.688V23.72ZM60.571,36.317l5.088,4.316v-.9l-5.088-4.312Zm0,8.4,1.815.652H64.4l-3.831-1.376Zm0-2.424,5.088,2.545v-.766l-5.088-2.544Zm0,1.244,4.283,1.832h.805v-.4L60.571,42.79Zm0-2.564L65.659,43.9v-.79l-5.088-2.932Zm0-2.961,5.088,3.813v-.86l-5.088-3.813Zm0,1.54L65.659,42.9v-.82l-5.088-3.357Z" transform="translate(-19.601 -12.505)"/><path class="f" d="M81.009,23.715l-8.3,2.072a11.153,11.153,0,0,0-1.187,1l11.021-2.747A11.241,11.241,0,0,0,81.009,23.715Zm1.8.4L70.433,28.016a9.463,9.463,0,0,0-.624.909L83.857,24.49A10.8,10.8,0,0,0,82.806,24.11Zm-4.293,4.5,7.056-3.227c-.232-.149-.473-.291-.717-.422L68.433,32.471c-.053.266-.093.532-.126.807l7.072-3.236A6.2,6.2,0,0,1,78.513,28.613Zm-4.355,2.876-5.916,3.162c0,.251.016.5.037.751l5.386-2.873A5.719,5.719,0,0,1,74.158,31.489Zm-.839,3a5.683,5.683,0,0,1,.053-.758l-4.893,3.014c.053.235.114.465.182.7l4.66-2.876C73.319,34.537,73.319,34.511,73.319,34.485ZM75.1,38.661l-3.709,3.387c.163.162.328.321.5.472l3.729-3.4A5.757,5.757,0,0,1,75.1,38.661Zm4.629,6.694,9.963-15.249c-.112-.244-.231-.485-.36-.718l-3.838,5.873a5.916,5.916,0,0,1-2.752,4.212L78.9,45.351c.178.008.354.014.536.014C79.528,45.365,79.627,45.359,79.724,45.355Zm1.1-16.653,5.188-2.769-4.705,2.9a6.153,6.153,0,0,1,.8.313l4.284-2.641-3.971,2.8a5.785,5.785,0,0,1,.631.4L86.8,27.056,83.286,29.88a5.8,5.8,0,0,1,.521.462l3.438-2.765L84,30.542c.155.169.3.35.437.533l3.289-3L84.6,31.31a6.366,6.366,0,0,1,.357.623l3.281-3.4-3.148,3.694a6.084,6.084,0,0,1,.264.762l3.423-4.021-3.328,4.449a5.838,5.838,0,0,1,.1,1.023l3.782-5.059a11.068,11.068,0,0,0-3.75-4l-5.915,3.159A6.472,6.472,0,0,1,80.827,28.7Zm-1.392-5.1a11.457,11.457,0,0,0-4.819,1.054l5.553-1.028C79.926,23.617,79.681,23.607,79.435,23.607Zm4.529.93L69.118,30.246c-.123.28-.23.567-.328.857l16.022-6.161C84.537,24.794,84.253,24.661,83.964,24.537Zm3,18.005L90.6,33.62a10.219,10.219,0,0,0-.2-1.364L85.861,43.39A11.676,11.676,0,0,0,86.96,42.542Zm-4.906,2.519,7.977-14.1c-.1-.283-.206-.558-.33-.829l-8.546,15.1C81.46,45.189,81.759,45.128,82.054,45.061Zm2.411-.86,5.886-12.148c-.082-.339-.178-.674-.29-1L83.486,44.625C83.82,44.5,84.147,44.357,84.465,44.2Zm6.17-9.716c0-.1-.005-.2-.008-.3l-2.32,6.933A10.63,10.63,0,0,0,90.635,34.485ZM78.216,40.3l-3.46,4.063c.22.1.444.19.672.276l3.6-4.234A6.069,6.069,0,0,1,78.216,40.3ZM76.5,39.689l-3.541,3.665c.191.134.389.262.588.382L77.161,40A6.425,6.425,0,0,1,76.5,39.689Zm3.754.679-3.5,4.682c.247.055.494.1.75.149l3.778-5.053A6.188,6.188,0,0,1,80.249,40.368Zm-6.2-3.069-3.96,3.183c.13.191.263.376.406.558l3.928-3.159A5.274,5.274,0,0,1,74.053,37.3Zm-.614-1.654L69.11,38.7c.092.212.192.424.3.629L73.63,36.35A6.614,6.614,0,0,1,73.439,35.645Z" transform="translate(-19.818 -12.505)"/><path class="g" d="M68.242,39.112l2.239,6.893h.733L68.242,36.85Zm0-5.036,4.72,11.929h.367v-.98L68.242,32.178Zm5.087-21.571H68.242v6.152l5.087,4.208v-.906l-5.079-4.2,5.079,3.689v-.865l-4.664-3.387,4.664,2.96v-.828l-4.3-2.726,4.3,2.362v-.8l-3.951-2.172,3.951,1.86v-.775l-3.656-1.719L73.329,16.8v-.751l-3.4-1.346,3.4,1.1v-.735l-3.183-1.033,3.183.815v-.721l-3.014-.773,3.014.574v-.711l-2.881-.55,2.881.364Zm-5.087,33.5h.935l-.935-2.61Zm0-15.575,5.087,10.81V39.6L68.242,28.789Zm0-8.322,5.087,6.146v-1.1l-5.087-6.149Zm0-2.441,5.087,4.776v-.959l-5.087-4.777Zm0,1.135,5.087,5.419V25.2l-5.087-5.416Zm0,4.633,5.087,8.015v-1.3l-5.087-8.015Zm0-1.811,5.087,7V29.436l-5.087-7Zm0,4.022L73.329,36.9v-1.45l-5.087-9.252Z" transform="translate(-19.699 -12.505)"/><path class="h" d="M99.948,32.961l2.131,8.066a11.127,11.127,0,0,0,1.027,1.149l-2.83-10.707A10.587,10.587,0,0,0,99.948,32.961Zm.406-1.743,4.02,12.018a11.04,11.04,0,0,0,.936.6l-4.567-13.647C100.6,30.526,100.468,30.867,100.354,31.218Zm4.635,4.167-3.32-6.857c-.152.228-.3.462-.434.7l7.725,15.949c.273.052.551.092.832.12l-3.328-6.869A5.889,5.889,0,0,1,104.989,35.386Zm2.961,4.229,3.25,5.751c.264-.006.524-.017.779-.038L109.02,40.1A6.1,6.1,0,0,1,107.95,39.614Zm3.082.819a7.085,7.085,0,0,1-.779-.051l3.105,4.748c.243-.048.481-.106.717-.17l-2.963-4.529Zm4.3-1.728,3.482,3.6c.17-.158.332-.318.491-.487l-3.5-3.623A6.174,6.174,0,0,1,115.335,38.7Zm6.891-4.494-15.7-9.679c-.252.107-.5.222-.742.349l6.047,3.727a6.13,6.13,0,0,1,4.336,2.674l6.049,3.727c.008-.172.013-.343.013-.517C122.231,34.4,122.227,34.3,122.226,34.211Zm-17.143-1.072L102.231,28.1l2.985,4.572a5.126,5.126,0,0,1,.324-.776l-2.719-4.16,2.885,3.858a6.042,6.042,0,0,1,.4-.615l-2.722-3.643,2.906,3.413a6.358,6.358,0,0,1,.476-.505l-2.845-3.34,3.051,3.153a6.741,6.741,0,0,1,.548-.421l-3.091-3.2,3.336,3.04a6.06,6.06,0,0,1,.64-.347l-3.5-3.187,3.8,3.054a6.15,6.15,0,0,1,.783-.25l-4.137-3.329,4.58,3.233a6.328,6.328,0,0,1,1.053-.1l-5.209-3.673a11.117,11.117,0,0,0-4.113,3.642l3.25,5.745A5.759,5.759,0,0,1,105.083,33.139Zm-5.248,1.354a10.621,10.621,0,0,0,1.086,4.68l-1.057-5.4C99.847,34.012,99.835,34.25,99.835,34.493Zm.957-4.4,5.879,14.425c.287.117.584.22.883.318L101.21,29.267Q100.985,29.669,100.792,30.089Zm18.535-2.908-9.185-3.532a11.5,11.5,0,0,0-1.4.192l11.459,4.4A11.442,11.442,0,0,0,119.327,27.181Zm2.594,4.765L107.409,24.2c-.287.1-.57.2-.851.32l15.541,8.3C122.052,32.523,121.991,32.23,121.921,31.946Zm-.885-2.342L108.53,23.888c-.345.079-.691.172-1.027.28l13.969,6.385A9.759,9.759,0,0,0,121.036,29.6Zm-10-5.993c-.1,0-.207.006-.308.009l7.138,2.252A11.355,11.355,0,0,0,111.032,23.611Zm5.992,12.062,4.182,3.365c.1-.215.2-.432.285-.656l-4.357-3.5A6.469,6.469,0,0,1,117.024,35.673Zm-.632,1.673,3.773,3.441c.135-.187.268-.379.393-.573L116.706,36.7A6.24,6.24,0,0,1,116.392,37.346Zm.7-3.646,4.814,3.4c.061-.238.112-.483.156-.728l-5.2-3.673A5.716,5.716,0,0,1,117.091,33.7Zm-3.158,6.018,3.275,3.847c.193-.126.385-.257.574-.391l-3.252-3.815A6.557,6.557,0,0,1,113.933,39.718Zm-1.7.6,3.147,4.207c.219-.089.435-.189.646-.292l-3.07-4.1A6.182,6.182,0,0,1,112.229,40.315Z" transform="translate(-20.454 -12.505)"/><path class="i" d="M122.231,45.365v-.03l-5.144-18.972v2.908l4.365,16.094Zm0-21.961h-.668l.668.777Zm0,15.242-4.99-14.61,4.99,12.026v-1.98L117.95,23.762l4.281,8.7V30.743l-3.593-7.3,3.593,6.262v-1.52L119.489,23.4h-2.4v2.532L122.231,41Zm-5.13,6.719h.771l-.785-5.736v5.622Zm5.13-20.915L121.44,23.4H120.5l1.736,2.3Zm0,1.687L120.425,23.4h-.906l2.712,4.1Zm-2.205,19.229-2.939-14.477v3.824l2.164,10.654Z" transform="translate(-20.454 -12.505)"/><path class="j" d="M92.686,23.4v.03L97.831,42.4V39.5L93.466,23.4Zm0,21.961h.67l-.67-.775Zm0-15.242,4.991,14.61L92.686,32.708v1.979L96.97,45.008l-4.284-8.7v1.715l3.6,7.306-3.6-6.262v1.52l2.743,4.777h2.4V42.834l-5.145-15.06ZM97.815,23.4h-.949l.965,5.911v-5.8ZM92.686,44.319l.791,1.046h.948l-1.739-2.3Zm0-1.687L94.5,45.365h.9l-2.713-4.1ZM94.89,23.4l2.941,14.478V34.058L95.667,23.4Z" transform="translate(-20.012 -12.505)"/><path class="k" d="M129.31,46.005a3,3,0,0,0,2.22-.924,3.059,3.059,0,0,0,.924-2.239,2.985,2.985,0,0,0-.924-2.218,3.04,3.04,0,0,0-2.24-.927,3.1,3.1,0,0,0-1.2.232l2.492.793-2.8-.637a3.389,3.389,0,0,0-.7.539l-.055.061,3.434.742-3.646-.5a3.249,3.249,0,0,0-.413.677l3.983.54-4.09-.254a2.984,2.984,0,0,0-.129.714l4.172.256-4.178.045a3.445,3.445,0,0,0,.09.721l4.1-.047-4.01.339a2.824,2.824,0,0,0,.352.695l3.709-.32-3.52.572c.064.075.131.149.2.219a3.142,3.142,0,0,0,.5.413l2.91-.492-2.613.669A3.123,3.123,0,0,0,129.31,46.005Z" transform="translate(-20.454 -12.959)"/></svg>